# xmcd
#
# Track frame offsets:
#	150
#	9751
#	17383
#	24935
#	35737
#	44892
#	53602
#	65388
#	69984
#	78672
#	90325
#
# Disc length: 1347 seconds
#
# Revision: 0
# Processed by: cddbd v1.5.1PL2 Copyright (c) Steve Scherf et al.
# Submitted via: EasyCDDAExtractor 9.0.0.1
#
DISCID=7a05410b
DTITLE=Roger Miller - Country Songs Collection
DYEAR=2005
DGENRE=Country
TTITLE0=Chug-A-Lug
TTITLE1=Dang Me
TTITLE2=Do-Wacka-Do
TTITLE3=King Of The Road
TTITLE4=One Dyin' And A Buryin'
TTITLE5=You Can't Roller Skate In A Bu
TTITLE6=Walking In The Sunshine
TTITLE7=Robin Hood
TTITLE8=England Swings
TTITLE9=Little Green Apples
TTITLE10=When Two Worlds Collide
EXTD=
EXTT0=
EXTT1=
EXTT2=
EXTT3=
EXTT4=
EXTT5=
EXTT6=
EXTT7=
EXTT8=
EXTT9=
EXTT10=
PLAYORDER=
